<svg width="16" height="11" viewBox="0 0 16 11" fill="none" xmlns="http://www.w3.org/2000/svg">
<g clip-path="url(#clip0_6_247)">
<path d="M15.074 1.289L11.144 5.289C11.1308 5.30229 11.1234 5.32027 11.1234 5.339C11.1234 5.35773 11.1308 5.3757 11.144 5.389L13.894 8.31799C13.9383 8.36203 13.9734 8.41439 13.9974 8.47206C14.0213 8.52972 14.0337 8.59156 14.0337 8.654C14.0337 8.71645 14.0213 8.77827 13.9974 8.83593C13.9734 8.89359 13.9383 8.94596 13.894 8.99C13.8048 9.07891 13.684 9.12883 13.558 9.12883C13.4321 9.12883 13.3112 9.07891 13.222 8.99L10.482 6.082C10.4679 6.06795 10.4489 6.06007 10.429 6.06007C10.4091 6.06007 10.3901 6.06795 10.376 6.082L9.70801 6.761C9.43437 7.04062 9.10768 7.26283 8.74709 7.41462C8.3865 7.56641 7.99925 7.64474 7.60801 7.645C7.20869 7.64337 6.81372 7.56205 6.44625 7.40579C6.07878 7.24953 5.7462 7.02147 5.46801 6.735L4.82501 6.08099C4.81094 6.06694 4.79188 6.05906 4.77201 6.05906C4.75213 6.05906 4.73307 6.06694 4.71901 6.08099L1.98001 8.999C1.89079 9.08791 1.76997 9.13783 1.64401 9.13783C1.51805 9.13783 1.39723 9.08791 1.30801 8.999C1.26374 8.95496 1.22862 8.9026 1.20465 8.84494C1.18068 8.78727 1.16835 8.72543 1.16835 8.66299C1.16835 8.60054 1.18068 8.53872 1.20465 8.48106C1.22862 8.4234 1.26374 8.37104 1.30801 8.32699L4.05801 5.39799C4.06972 5.38396 4.07614 5.36628 4.07614 5.348C4.07614 5.32973 4.06972 5.31203 4.05801 5.298L0.124007 1.298C0.113996 1.28754 0.101065 1.28034 0.0869014 1.27734C0.0727377 1.27434 0.0580007 1.27569 0.0446116 1.2812C0.0312226 1.28671 0.0198039 1.29611 0.0118472 1.30821C0.00389048 1.3203 -0.000233313 1.33452 1.01945e-05 1.34899V9.35899C0.000802174 9.66878 0.124217 9.96567 0.343276 10.1847C0.562334 10.4038 0.859214 10.5272 1.16901 10.528H14.029C14.3388 10.5272 14.6357 10.4038 14.8547 10.1847C15.0738 9.96567 15.1972 9.66878 15.198 9.35899V1.34899C15.1997 1.33397 15.1967 1.31878 15.1894 1.30554C15.1821 1.29229 15.1709 1.28164 15.1573 1.27505C15.1437 1.26846 15.1283 1.26627 15.1134 1.26876C15.0985 1.27126 15.0847 1.27834 15.074 1.289Z" fill="black"/>
<path d="M7.59982 6.688C7.8659 6.68875 8.12943 6.63602 8.37473 6.53295C8.62004 6.42988 8.84213 6.27856 9.02782 6.08799L14.7588 0.254994C14.5543 0.0892968 14.299 -0.00108021 14.0358 -0.00100266H1.16783C0.904494 -0.00173547 0.649023 0.088717 0.444824 0.254994L6.17583 6.08799C6.36105 6.27808 6.5825 6.42912 6.82708 6.53217C7.07166 6.63522 7.33442 6.68821 7.59982 6.688Z" fill="black"/>
</g>
<defs>
<clipPath id="clip0_6_247">
<rect width="15.195" height="10.52" fill="white" transform="translate(0.00292969)"/>
</clipPath>
</defs>
</svg>
