<svg width="68" height="68" viewBox="0 0 68 68" fill="none" xmlns="http://www.w3.org/2000/svg">
<g clip-path="url(#clip0_6_176)">
<path d="M31.6081 46.217C31.2516 46.2201 30.8988 46.1452 30.5742 45.9977C30.2496 45.8502 29.9612 45.6336 29.7291 45.363L16.8291 31.353C16.6031 31.1065 16.4281 30.8177 16.314 30.5034C16.1999 30.189 16.149 29.8552 16.1643 29.5211C16.1795 29.187 16.2606 28.8592 16.4028 28.5566C16.545 28.2539 16.7456 27.9823 16.9931 27.7573C17.2406 27.5324 17.53 27.3585 17.8449 27.2457C18.1597 27.1329 18.4937 27.0834 18.8277 27.1C19.1617 27.1166 19.4892 27.199 19.7913 27.3424C20.0934 27.4859 20.3642 27.6876 20.5881 27.936L31.6931 39.981L62.4471 9.313C62.9268 8.85861 63.5649 8.60931 64.2256 8.61813C64.8863 8.62695 65.5175 8.89319 65.9849 9.36023C66.4523 9.82726 66.7191 10.4582 66.7285 11.1189C66.7379 11.7796 66.4891 12.4179 66.0351 12.898L33.4021 45.448C33.1766 45.6984 32.8994 45.8969 32.5896 46.0297C32.2799 46.1625 31.945 46.2264 31.6081 46.217Z" fill="#4DCFE0"/>
<path d="M34 68C24.9826 68 16.3346 64.4179 9.95837 58.0416C3.58213 51.6654 0 43.0174 0 34C0 24.9826 3.58213 16.3346 9.95837 9.95837C16.3346 3.58213 24.9826 1.02748e-06 34 1.02748e-06C34.3383 -0.00624018 34.6744 0.0557897 34.9882 0.182383C35.3019 0.308976 35.587 0.497534 35.8262 0.736785C36.0655 0.976036 36.254 1.26107 36.3806 1.57485C36.5072 1.88863 36.5692 2.22471 36.563 2.563C36.5691 2.90121 36.507 3.23718 36.3803 3.55085C36.2537 3.86451 36.0651 4.14942 35.8259 4.38856C35.5866 4.62771 35.3016 4.81618 34.9879 4.94271C34.6742 5.06924 34.3382 5.13124 34 5.125C28.2893 5.1252 22.707 6.81877 17.9588 9.99156C13.2107 13.1644 9.50999 17.6739 7.32471 22.9499C5.13943 28.2259 4.56771 34.0314 5.68185 39.6323C6.796 45.2332 9.54596 50.378 13.584 54.416C17.622 58.454 22.7668 61.204 28.3677 62.3181C33.9686 63.4323 39.7741 62.8606 45.0501 60.6753C50.3261 58.49 54.8356 54.7893 58.0084 50.0412C61.1812 45.293 62.8748 39.7107 62.875 34C62.8683 33.6592 62.9296 33.3205 63.0553 33.0037C63.1811 32.687 63.3688 32.3984 63.6074 32.155C63.846 31.9117 64.1308 31.7183 64.445 31.5863C64.7592 31.4544 65.0967 31.3864 65.4375 31.3864C65.7783 31.3864 66.1158 31.4544 66.43 31.5863C66.7442 31.7183 67.029 31.9117 67.2676 32.155C67.5062 32.3984 67.6939 32.687 67.8197 33.0037C67.9454 33.3205 68.0067 33.6592 68 34C67.9765 43.0101 64.3868 51.6445 58.0157 58.0157C51.6445 64.3868 43.0101 67.9765 34 68Z" fill="#1185E0"/>
</g>
<defs>
<clipPath id="clip0_6_176">
<rect width="68" height="68" fill="white"/>
</clipPath>
</defs>
</svg>
