<svg width="15" height="15" viewBox="0 0 15 15" fill="none" xmlns="http://www.w3.org/2000/svg">
<g clip-path="url(#clip0_2_52)">
<path d="M14.567 11.746C13.7672 11.0507 12.8829 10.459 11.935 9.98501C11.146 9.60601 10.857 9.61401 10.299 10.016C9.834 10.352 9.534 10.664 8.999 10.547C7.06482 9.51848 5.48211 7.93543 4.454 6.00101C4.341 5.46201 4.654 5.16501 4.985 4.70101C5.385 4.14301 5.399 3.85401 5.016 3.06501C4.54437 2.11575 3.95251 1.23115 3.255 0.433013C2.681 -0.140987 2.555 -0.0159852 2.236 0.0970148C1.91041 0.234894 1.59811 0.402258 1.303 0.597015C0.820864 0.872187 0.430846 1.28377 0.182002 1.78001C-0.0409977 2.26001 -0.297997 3.15501 1.014 5.49001C1.98204 7.27795 3.2082 8.9135 4.653 10.344V10.344C6.08421 11.7883 7.71963 13.0147 9.507 13.984C11.842 15.296 12.736 15.038 13.217 14.816C13.7149 14.5696 14.1272 14.179 14.4 13.695C14.5948 13.3999 14.7621 13.0876 14.9 12.762C15.016 12.449 15.143 12.32 14.567 11.746Z" fill="white"/>
</g>
<defs>
<clipPath id="clip0_2_52">
<rect width="15" height="15" fill="white"/>
</clipPath>
</defs>
</svg>
