<svg width="16" height="15" viewBox="0 0 16 15" fill="none" xmlns="http://www.w3.org/2000/svg">
<g clip-path="url(#clip0_6_242)">
<path d="M14.5698 11.746C13.77 11.0506 12.8857 10.459 11.9378 9.98499C11.1488 9.60599 10.8598 9.614 10.3018 10.016C9.83679 10.352 9.5368 10.664 9.0018 10.547C7.06761 9.51846 5.4849 7.93541 4.45679 6.001C4.34379 5.462 4.6568 5.165 4.9878 4.701C5.3878 4.143 5.40179 3.85399 5.01879 3.06499C4.54717 2.11573 3.9553 1.23113 3.25779 0.432998C2.68379 -0.141002 2.5578 -0.0160004 2.2388 0.0969995C1.91321 0.234879 1.60091 0.402242 1.3058 0.597C0.823656 0.872172 0.433639 1.28376 0.184795 1.78C-0.0382053 2.26 -0.295205 3.155 1.0168 5.49C1.98483 7.27793 3.211 8.91349 4.6558 10.344C6.087 11.7883 7.72242 13.0147 9.50979 13.984C11.8448 15.296 12.7388 15.038 13.2198 14.816C13.7177 14.5696 14.1299 14.179 14.4028 13.695C14.5976 13.3999 14.7649 13.0876 14.9028 12.762C15.0188 12.449 15.1458 12.32 14.5698 11.746Z" fill="black"/>
</g>
<defs>
<clipPath id="clip0_6_242">
<rect width="15" height="15" fill="white" transform="translate(0.00292969)"/>
</clipPath>
</defs>
</svg>
