<svg width="26" height="36" viewBox="0 0 26 36" fill="none" xmlns="http://www.w3.org/2000/svg">
<g clip-path="url(#clip0_6_19)">
<path d="M12.857 7.42064e-05C9.48424 -0.0237273 6.23908 1.28797 3.83016 3.64874C1.42125 6.0095 0.0442955 9.22752 0 12.6001C0 22.0501 12.857 36.0001 12.857 36.0001C12.857 36.0001 25.714 22.0501 25.714 12.6001C25.6697 9.22752 24.2928 6.0095 21.8838 3.64874C19.4749 1.28797 16.2298 -0.0237273 12.857 7.42064e-05V7.42064e-05ZM12.857 17.1001C11.9711 17.082 11.1103 16.8027 10.3825 16.2974C9.65468 15.792 9.09224 15.0831 8.76571 14.2594C8.43918 13.4357 8.36309 12.5339 8.54697 11.6671C8.73086 10.8004 9.16653 10.0072 9.79938 9.387C10.4322 8.76684 11.2341 8.3473 12.1044 8.18099C12.9747 8.01468 13.8747 8.10901 14.6917 8.45214C15.5086 8.79527 16.206 9.37194 16.6965 10.1098C17.1871 10.8477 17.4488 11.714 17.449 12.6001C17.4491 13.1988 17.3298 13.7916 17.0979 14.3437C16.866 14.8957 16.5263 15.3959 16.0986 15.815C15.671 16.2341 15.164 16.5636 14.6073 16.7843C14.0507 17.005 13.4556 17.1123 12.857 17.1001V17.1001Z" fill="#65C511"/>
</g>
<defs>
<clipPath id="clip0_6_19">
<rect width="25.714" height="36" fill="white"/>
</clipPath>
</defs>
</svg>
